<mxfile host="app.diagrams.net" agent="Mozilla/5.0 (Windows NT 10.0; Win64; x64) AppleWebKit/537.36 (KHTML, like Gecko) Chrome/136.0.0.0 Safari/537.36 Edg/136.0.0.0" version="27.0.1">
  <diagram name="第 1 页" id="KEUl5P71aVj1H24XZP6_">
    <mxGraphModel dx="889" dy="877" grid="1" gridSize="10" guides="1" tooltips="1" connect="1" arrows="1" fold="1" page="1" pageScale="1" pageWidth="827" pageHeight="1169" background="#ffffff" math="0" shadow="0">
      <root>
        <mxCell id="0" />
        <mxCell id="1" parent="0" />
        <mxCell id="7-vycpByaA6Rs8yl1-Dz-5" style="edgeStyle=orthogonalEdgeStyle;rounded=0;orthogonalLoop=1;jettySize=auto;html=1;exitX=0.5;exitY=0;exitDx=0;exitDy=0;entryX=0.5;entryY=1;entryDx=0;entryDy=0;" edge="1" parent="1" source="7-vycpByaA6Rs8yl1-Dz-1" target="7-vycpByaA6Rs8yl1-Dz-3">
          <mxGeometry relative="1" as="geometry" />
        </mxCell>
        <mxCell id="7-vycpByaA6Rs8yl1-Dz-34" style="edgeStyle=orthogonalEdgeStyle;rounded=0;orthogonalLoop=1;jettySize=auto;html=1;exitX=1;exitY=0.25;exitDx=0;exitDy=0;entryX=0;entryY=0.25;entryDx=0;entryDy=0;dashed=1;" edge="1" parent="1" source="7-vycpByaA6Rs8yl1-Dz-1" target="7-vycpByaA6Rs8yl1-Dz-11">
          <mxGeometry relative="1" as="geometry" />
        </mxCell>
        <mxCell id="7-vycpByaA6Rs8yl1-Dz-1" value="&lt;font style=&quot;font-size: 24px;&quot;&gt;LSTM&lt;/font&gt;" style="rounded=0;whiteSpace=wrap;html=1;fillColor=#dae8fc;strokeColor=#6c8ebf;" vertex="1" parent="1">
          <mxGeometry x="160" y="220" width="120" height="60" as="geometry" />
        </mxCell>
        <mxCell id="7-vycpByaA6Rs8yl1-Dz-8" style="edgeStyle=orthogonalEdgeStyle;rounded=0;orthogonalLoop=1;jettySize=auto;html=1;entryX=0;entryY=0.5;entryDx=0;entryDy=0;curved=0;exitX=0;exitY=0.5;exitDx=0;exitDy=0;" edge="1" parent="1" source="7-vycpByaA6Rs8yl1-Dz-2" target="7-vycpByaA6Rs8yl1-Dz-3">
          <mxGeometry relative="1" as="geometry">
            <Array as="points">
              <mxPoint x="110" y="370" />
              <mxPoint x="110" y="120" />
            </Array>
          </mxGeometry>
        </mxCell>
        <mxCell id="7-vycpByaA6Rs8yl1-Dz-2" value="&lt;font style=&quot;font-size: 24px;&quot;&gt;LSTM&lt;/font&gt;" style="rounded=0;whiteSpace=wrap;html=1;fillColor=#dae8fc;strokeColor=#6c8ebf;" vertex="1" parent="1">
          <mxGeometry x="160" y="340" width="120" height="60" as="geometry" />
        </mxCell>
        <mxCell id="7-vycpByaA6Rs8yl1-Dz-3" value="&lt;font style=&quot;font-size: 24px;&quot;&gt;h&lt;sub&gt;t-1&lt;/sub&gt;&lt;/font&gt;" style="ellipse;whiteSpace=wrap;html=1;aspect=fixed;fillColor=#ffe6cc;strokeColor=#d79b00;" vertex="1" parent="1">
          <mxGeometry x="180" y="80" width="80" height="80" as="geometry" />
        </mxCell>
        <mxCell id="7-vycpByaA6Rs8yl1-Dz-6" style="edgeStyle=orthogonalEdgeStyle;rounded=0;orthogonalLoop=1;jettySize=auto;html=1;entryX=0.5;entryY=1;entryDx=0;entryDy=0;" edge="1" parent="1" source="7-vycpByaA6Rs8yl1-Dz-4" target="7-vycpByaA6Rs8yl1-Dz-2">
          <mxGeometry relative="1" as="geometry" />
        </mxCell>
        <mxCell id="7-vycpByaA6Rs8yl1-Dz-7" style="edgeStyle=orthogonalEdgeStyle;rounded=0;orthogonalLoop=1;jettySize=auto;html=1;entryX=1;entryY=0.5;entryDx=0;entryDy=0;curved=0;" edge="1" parent="1" source="7-vycpByaA6Rs8yl1-Dz-4" target="7-vycpByaA6Rs8yl1-Dz-1">
          <mxGeometry relative="1" as="geometry">
            <Array as="points">
              <mxPoint x="340" y="500" />
              <mxPoint x="340" y="250" />
            </Array>
          </mxGeometry>
        </mxCell>
        <mxCell id="7-vycpByaA6Rs8yl1-Dz-4" value="&lt;font style=&quot;font-size: 24px;&quot;&gt;X&lt;sub&gt;t-1&lt;/sub&gt;&lt;/font&gt;" style="ellipse;whiteSpace=wrap;html=1;aspect=fixed;fillColor=#ffe6cc;strokeColor=#d79b00;" vertex="1" parent="1">
          <mxGeometry x="180" y="460" width="80" height="80" as="geometry" />
        </mxCell>
        <mxCell id="7-vycpByaA6Rs8yl1-Dz-10" style="edgeStyle=orthogonalEdgeStyle;rounded=0;orthogonalLoop=1;jettySize=auto;html=1;exitX=0.5;exitY=0;exitDx=0;exitDy=0;entryX=0.5;entryY=1;entryDx=0;entryDy=0;" edge="1" parent="1" source="7-vycpByaA6Rs8yl1-Dz-11" target="7-vycpByaA6Rs8yl1-Dz-14">
          <mxGeometry relative="1" as="geometry" />
        </mxCell>
        <mxCell id="7-vycpByaA6Rs8yl1-Dz-35" style="edgeStyle=orthogonalEdgeStyle;rounded=0;orthogonalLoop=1;jettySize=auto;html=1;exitX=1;exitY=0.25;exitDx=0;exitDy=0;entryX=0;entryY=0.25;entryDx=0;entryDy=0;dashed=1;" edge="1" parent="1" source="7-vycpByaA6Rs8yl1-Dz-11" target="7-vycpByaA6Rs8yl1-Dz-27">
          <mxGeometry relative="1" as="geometry" />
        </mxCell>
        <mxCell id="7-vycpByaA6Rs8yl1-Dz-11" value="&lt;font style=&quot;font-size: 24px;&quot;&gt;LSTM&lt;/font&gt;" style="rounded=0;whiteSpace=wrap;html=1;fillColor=#dae8fc;strokeColor=#6c8ebf;" vertex="1" parent="1">
          <mxGeometry x="429.94" y="220" width="120" height="60" as="geometry" />
        </mxCell>
        <mxCell id="7-vycpByaA6Rs8yl1-Dz-12" style="edgeStyle=orthogonalEdgeStyle;rounded=0;orthogonalLoop=1;jettySize=auto;html=1;entryX=0;entryY=0.5;entryDx=0;entryDy=0;curved=0;exitX=0;exitY=0.5;exitDx=0;exitDy=0;" edge="1" parent="1" source="7-vycpByaA6Rs8yl1-Dz-13" target="7-vycpByaA6Rs8yl1-Dz-14">
          <mxGeometry relative="1" as="geometry">
            <Array as="points">
              <mxPoint x="379.94" y="370" />
              <mxPoint x="379.94" y="120" />
            </Array>
          </mxGeometry>
        </mxCell>
        <mxCell id="7-vycpByaA6Rs8yl1-Dz-37" style="edgeStyle=orthogonalEdgeStyle;rounded=0;orthogonalLoop=1;jettySize=auto;html=1;exitX=0;exitY=0.75;exitDx=0;exitDy=0;entryX=1;entryY=0.75;entryDx=0;entryDy=0;dashed=1;" edge="1" parent="1" source="7-vycpByaA6Rs8yl1-Dz-13" target="7-vycpByaA6Rs8yl1-Dz-2">
          <mxGeometry relative="1" as="geometry" />
        </mxCell>
        <mxCell id="7-vycpByaA6Rs8yl1-Dz-13" value="&lt;font style=&quot;font-size: 24px;&quot;&gt;LSTM&lt;/font&gt;" style="rounded=0;whiteSpace=wrap;html=1;fillColor=#dae8fc;strokeColor=#6c8ebf;" vertex="1" parent="1">
          <mxGeometry x="429.94" y="340" width="120" height="60" as="geometry" />
        </mxCell>
        <mxCell id="7-vycpByaA6Rs8yl1-Dz-14" value="&lt;font style=&quot;font-size: 24px;&quot;&gt;h&lt;sub&gt;t&lt;/sub&gt;&lt;/font&gt;" style="ellipse;whiteSpace=wrap;html=1;aspect=fixed;fillColor=#ffe6cc;strokeColor=#d79b00;" vertex="1" parent="1">
          <mxGeometry x="449.94" y="80" width="80" height="80" as="geometry" />
        </mxCell>
        <mxCell id="7-vycpByaA6Rs8yl1-Dz-15" style="edgeStyle=orthogonalEdgeStyle;rounded=0;orthogonalLoop=1;jettySize=auto;html=1;entryX=0.5;entryY=1;entryDx=0;entryDy=0;" edge="1" parent="1" source="7-vycpByaA6Rs8yl1-Dz-17" target="7-vycpByaA6Rs8yl1-Dz-13">
          <mxGeometry relative="1" as="geometry" />
        </mxCell>
        <mxCell id="7-vycpByaA6Rs8yl1-Dz-16" style="edgeStyle=orthogonalEdgeStyle;rounded=0;orthogonalLoop=1;jettySize=auto;html=1;entryX=1;entryY=0.5;entryDx=0;entryDy=0;curved=0;" edge="1" parent="1" source="7-vycpByaA6Rs8yl1-Dz-17" target="7-vycpByaA6Rs8yl1-Dz-11">
          <mxGeometry relative="1" as="geometry">
            <Array as="points">
              <mxPoint x="609.94" y="500" />
              <mxPoint x="609.94" y="250" />
            </Array>
          </mxGeometry>
        </mxCell>
        <mxCell id="7-vycpByaA6Rs8yl1-Dz-17" value="&lt;font style=&quot;font-size: 24px;&quot;&gt;X&lt;sub&gt;t&lt;/sub&gt;&lt;/font&gt;" style="ellipse;whiteSpace=wrap;html=1;aspect=fixed;fillColor=#ffe6cc;strokeColor=#d79b00;" vertex="1" parent="1">
          <mxGeometry x="449.94" y="460" width="80" height="80" as="geometry" />
        </mxCell>
        <mxCell id="7-vycpByaA6Rs8yl1-Dz-26" style="edgeStyle=orthogonalEdgeStyle;rounded=0;orthogonalLoop=1;jettySize=auto;html=1;exitX=0.5;exitY=0;exitDx=0;exitDy=0;entryX=0.5;entryY=1;entryDx=0;entryDy=0;" edge="1" parent="1" source="7-vycpByaA6Rs8yl1-Dz-27" target="7-vycpByaA6Rs8yl1-Dz-30">
          <mxGeometry relative="1" as="geometry" />
        </mxCell>
        <mxCell id="7-vycpByaA6Rs8yl1-Dz-27" value="&lt;font style=&quot;font-size: 24px;&quot;&gt;LSTM&lt;/font&gt;" style="rounded=0;whiteSpace=wrap;html=1;fillColor=#dae8fc;strokeColor=#6c8ebf;" vertex="1" parent="1">
          <mxGeometry x="699.94" y="220" width="120" height="60" as="geometry" />
        </mxCell>
        <mxCell id="7-vycpByaA6Rs8yl1-Dz-28" style="edgeStyle=orthogonalEdgeStyle;rounded=0;orthogonalLoop=1;jettySize=auto;html=1;entryX=0;entryY=0.5;entryDx=0;entryDy=0;curved=0;exitX=0;exitY=0.5;exitDx=0;exitDy=0;" edge="1" parent="1" source="7-vycpByaA6Rs8yl1-Dz-29" target="7-vycpByaA6Rs8yl1-Dz-30">
          <mxGeometry relative="1" as="geometry">
            <Array as="points">
              <mxPoint x="649.94" y="370" />
              <mxPoint x="649.94" y="120" />
            </Array>
          </mxGeometry>
        </mxCell>
        <mxCell id="7-vycpByaA6Rs8yl1-Dz-36" style="edgeStyle=orthogonalEdgeStyle;rounded=0;orthogonalLoop=1;jettySize=auto;html=1;exitX=0;exitY=0.75;exitDx=0;exitDy=0;entryX=1;entryY=0.75;entryDx=0;entryDy=0;dashed=1;" edge="1" parent="1" source="7-vycpByaA6Rs8yl1-Dz-29" target="7-vycpByaA6Rs8yl1-Dz-13">
          <mxGeometry relative="1" as="geometry" />
        </mxCell>
        <mxCell id="7-vycpByaA6Rs8yl1-Dz-29" value="&lt;font style=&quot;font-size: 24px;&quot;&gt;LSTM&lt;/font&gt;" style="rounded=0;whiteSpace=wrap;html=1;fillColor=#dae8fc;strokeColor=#6c8ebf;" vertex="1" parent="1">
          <mxGeometry x="699.94" y="340" width="120" height="60" as="geometry" />
        </mxCell>
        <mxCell id="7-vycpByaA6Rs8yl1-Dz-30" value="&lt;font style=&quot;font-size: 24px;&quot;&gt;h&lt;sub&gt;t+1&lt;/sub&gt;&lt;/font&gt;" style="ellipse;whiteSpace=wrap;html=1;aspect=fixed;fillColor=#ffe6cc;strokeColor=#d79b00;" vertex="1" parent="1">
          <mxGeometry x="719.94" y="80" width="80" height="80" as="geometry" />
        </mxCell>
        <mxCell id="7-vycpByaA6Rs8yl1-Dz-31" style="edgeStyle=orthogonalEdgeStyle;rounded=0;orthogonalLoop=1;jettySize=auto;html=1;entryX=0.5;entryY=1;entryDx=0;entryDy=0;" edge="1" parent="1" source="7-vycpByaA6Rs8yl1-Dz-33" target="7-vycpByaA6Rs8yl1-Dz-29">
          <mxGeometry relative="1" as="geometry" />
        </mxCell>
        <mxCell id="7-vycpByaA6Rs8yl1-Dz-32" style="edgeStyle=orthogonalEdgeStyle;rounded=0;orthogonalLoop=1;jettySize=auto;html=1;entryX=1;entryY=0.5;entryDx=0;entryDy=0;curved=0;" edge="1" parent="1" source="7-vycpByaA6Rs8yl1-Dz-33" target="7-vycpByaA6Rs8yl1-Dz-27">
          <mxGeometry relative="1" as="geometry">
            <Array as="points">
              <mxPoint x="879.94" y="500" />
              <mxPoint x="879.94" y="250" />
            </Array>
          </mxGeometry>
        </mxCell>
        <mxCell id="7-vycpByaA6Rs8yl1-Dz-33" value="&lt;font style=&quot;font-size: 24px;&quot;&gt;X&lt;sub&gt;t+1&lt;/sub&gt;&lt;/font&gt;" style="ellipse;whiteSpace=wrap;html=1;aspect=fixed;fillColor=#ffe6cc;strokeColor=#d79b00;" vertex="1" parent="1">
          <mxGeometry x="719.94" y="460" width="80" height="80" as="geometry" />
        </mxCell>
        <mxCell id="7-vycpByaA6Rs8yl1-Dz-38" value="&lt;font style=&quot;font-size: 24px;&quot;&gt;反向LSTM&lt;/font&gt;" style="text;html=1;align=center;verticalAlign=middle;whiteSpace=wrap;rounded=0;" vertex="1" parent="1">
          <mxGeometry x="20" y="355" width="60" height="30" as="geometry" />
        </mxCell>
        <mxCell id="7-vycpByaA6Rs8yl1-Dz-39" value="&lt;font style=&quot;font-size: 24px;&quot;&gt;正向LSTM&lt;/font&gt;" style="text;html=1;align=center;verticalAlign=middle;whiteSpace=wrap;rounded=0;" vertex="1" parent="1">
          <mxGeometry x="900" y="235" width="60" height="30" as="geometry" />
        </mxCell>
      </root>
    </mxGraphModel>
  </diagram>
</mxfile>
